<?xml version="1.0" standalone="no"?>
<!DOCTYPE svg PUBLIC "-//W3C//DTD SVG 20010904//EN"
 "http://www.w3.org/TR/2001/REC-SVG-20010904/DTD/svg10.dtd">
<svg version="1.0" xmlns="http://www.w3.org/2000/svg"
 width="287.000000pt" height="287.000000pt" viewBox="0 0 287.000000 287.000000"
 preserveAspectRatio="xMidYMid meet">
<metadata>
Created by potrace 1.14, written by Peter Selinger 2001-2017
</metadata>
<g transform="translate(0.000000,287.000000) scale(0.100000,-0.100000)"
fill="#000000" stroke="none">
<path d="M1270 2835 c-8 -2 -49 -9 -90 -15 -191 -31 -433 -138 -595 -263 -281
-218 -463 -513 -535 -865 -26 -131 -28 -358 -4 -500 100 -596 578 -1067 1179
-1163 113 -18 340 -15 455 5 213 37 437 134 611 265 467 351 668 949 511 1516
-137 496 -549 882 -1068 1001 -63 14 -422 29 -464 19z m311 -335 c74 -94 136
-175 137 -180 2 -6 -96 -10 -278 -10 -195 0 -281 3 -278 11 5 16 271 349 278
349 4 0 67 -77 141 -170z m-291 151 c0 -5 -3 -11 -7 -13 -7 -3 -141 -168 -232
-285 l-33 -43 -219 0 c-134 0 -219 4 -219 10 0 5 28 33 63 61 156 131 339 221
537 265 68 15 110 17 110 5z m417 -6 c207 -47 453 -176 573 -300 l34 -35 -226
0 -227 0 -128 163 c-71 89 -132 168 -137 175 -10 17 26 16 111 -3z m-779 -443
c-12 -28 -352 -442 -358 -435 -7 8 -100 410 -100 432 0 8 74 11 231 11 127 0
229 -4 227 -8z m1039 -189 c86 -109 192 -242 236 -297 l79 -99 -57 -251 c-32
-138 -69 -302 -83 -365 l-27 -114 -105 -50 c-438 -208 -565 -267 -572 -267 -5
0 -52 21 -106 47 -204 97 -566 274 -569 277 -2 2 -40 165 -84 362 -63 281 -78
363 -69 377 11 19 395 502 436 550 l24 27 370 0 370 0 157 -197z m443 180 c0
-24 -92 -426 -99 -435 -6 -7 -351 419 -359 443 -2 5 90 9 227 9 213 0 231 -1
231 -17z m-1986 -263 c15 -63 34 -153 44 -200 l19 -85 -134 -167 c-73 -93
-138 -168 -143 -168 -16 0 -12 235 5 333 24 136 109 365 158 426 15 17 19 7
51 -139z m2126 60 c82 -163 127 -344 130 -515 2 -145 1 -175 -9 -175 -15 0
-282 342 -277 356 2 6 23 94 46 195 49 218 49 219 61 219 5 0 27 -36 49 -80z
m-2030 -485 c0 -2 27 -125 60 -272 33 -147 60 -268 60 -270 0 -11 -44 8 -217
92 -107 52 -193 99 -191 104 1 5 64 86 138 180 119 150 150 184 150 166z
m1990 -176 c74 -94 137 -175 138 -180 3 -8 -42 -31 -312 -158 -49 -23 -91 -39
-94 -36 -3 3 20 119 52 258 66 290 65 287 74 287 4 -1 68 -77 142 -171z
m-2031 -414 l190 -90 10 -40 c5 -22 26 -112 46 -200 19 -88 38 -168 41 -177 9
-29 -9 -21 -81 33 -146 111 -278 273 -361 444 -30 62 -54 115 -54 119 0 10 -3
12 209 -89z m2121 59 c-72 -190 -236 -404 -405 -533 -68 -51 -85 -59 -85 -42
0 24 92 407 100 415 12 12 372 184 387 185 9 1 10 -6 3 -25z m-1617 -302 c100
-48 215 -103 254 -122 40 -19 73 -37 73 -40 0 -3 -91 -49 -202 -102 -165 -78
-205 -93 -214 -82 -6 7 -30 102 -54 211 -24 109 -45 204 -48 211 -2 6 -1 12 2
12 4 0 88 -40 189 -88z m1097 71 c0 -20 -93 -419 -100 -426 -8 -9 -402 175
-407 190 -2 6 36 28 84 51 48 22 149 69 223 104 207 98 200 95 200 81z m-446
-385 c105 -50 195 -95 200 -99 5 -4 -22 -17 -60 -28 -203 -60 -489 -57 -689 7
l-60 19 135 64 c74 35 164 78 200 96 36 17 69 32 74 32 6 1 96 -40 200 -91z"/>
</g>
</svg>
